<svg xmlns="http://www.w3.org/2000/svg" viewBox="-5959 1240.473 12.576 13.973">
  <defs>
    <style>
      .cls-1 {
        fill: #2dca73;
      }
    </style>
  </defs>
  <path id="Path_327" data-name="Path 327" class="cls-1" d="M7.192,8.288h-1.4v1.4h1.4Zm2.795,0h-1.4v1.4h1.4Zm2.795,0h-1.4v1.4h1.4Zm1.4-4.891h-.7V2h-1.4V3.4H6.493V2H5.1V3.4H4.4a1.391,1.391,0,0,0-1.39,1.4L3,14.576a1.4,1.4,0,0,0,1.4,1.4h9.781a1.4,1.4,0,0,0,1.4-1.4V4.795A1.4,1.4,0,0,0,14.179,3.4Zm0,11.179H4.4V6.891h9.781Z" transform="translate(-5962 1238.473)"/>
</svg>
