<?xml version="1.0" encoding="utf-8"?>
<!-- Generator: Adobe Illustrator 22.0.1, SVG Export Plug-In . SVG Version: 6.00 Build 0)  -->
<svg version="1.1" id="Layer_1" xmlns="http://www.w3.org/2000/svg" xmlns:xlink="http://www.w3.org/1999/xlink" x="0px" y="0px"
	 viewBox="0 0 100 100" style="enable-background:new 0 0 100 100;" xml:space="preserve">
<style type="text/css">
	.st0{fill:#FFFFFF;}
</style>
<title>Levers 7.2</title>
<desc>Created with Sketch.</desc>
<g>
	<g>
		<path class="st0" d="M66.9,51c-0.5,2.3-2.5,4-4.9,4c-2.4,0-4.4-1.7-4.9-4H30c-0.6,0-1-0.4-1-1s0.4-1,1-1h27.1c0.5-2.3,2.5-4,4.9-4
			c2.4,0,4.4,1.7,4.9,4H70c0.6,0,1,0.4,1,1s-0.4,1-1,1H66.9z M62,47c-1.7,0-3,1.3-3,3c0,1.7,1.3,3,3,3c1.7,0,3-1.3,3-3
			C65,48.3,63.7,47,62,47z M42.9,33c-0.5,2.3-2.5,4-4.9,4c-2.4,0-4.4-1.7-4.9-4H30c-0.6,0-1-0.4-1-1s0.4-1,1-1h3.1
			c0.5-2.3,2.5-4,4.9-4c2.4,0,4.4,1.7,4.9,4H70c0.6,0,1,0.4,1,1s-0.4,1-1,1H42.9L42.9,33z M38,29c-1.7,0-3,1.3-3,3c0,1.7,1.3,3,3,3
			c1.7,0,3-1.3,3-3C41,30.3,39.7,29,38,29z M51.9,69c-0.5,2.3-2.5,4-4.9,4c-2.4,0-4.4-1.7-4.9-4H30c-0.6,0-1-0.4-1-1s0.4-1,1-1h12.1
			c0.5-2.3,2.5-4,4.9-4c2.4,0,4.4,1.7,4.9,4H70c0.6,0,1,0.4,1,1s-0.4,1-1,1H51.9z M47,65c-1.7,0-3,1.3-3,3c0,1.7,1.3,3,3,3
			c1.7,0,3-1.3,3-3C50,66.3,48.7,65,47,65z"/>
	</g>
</g>
</svg>
