<?xml version="1.0" encoding="utf-8"?>
<!-- Generator: Adobe Illustrator 22.0.1, SVG Export Plug-In . SVG Version: 6.00 Build 0)  -->
<svg version="1.1" id="Layer_1" xmlns="http://www.w3.org/2000/svg" xmlns:xlink="http://www.w3.org/1999/xlink" x="0px" y="0px"
	 viewBox="0 0 100 100" style="enable-background:new 0 0 100 100;" xml:space="preserve">
<style type="text/css">
	.st0{fill:#FFFFFF;}
</style>
<title>Levers 7.2</title>
<desc>Created with Sketch.</desc>
<g>
	<path class="st0" d="M37.5,60.8c-0.4,0.4-0.4,1,0,1.4c0.4,0.4,1,0.4,1.4,0l12.5-12.5L50,48.3L37.5,60.8z"/>
	<polygon class="st0" points="48.6,49.7 50,51.1 51.4,49.7 50,48.3 	"/>
	<path class="st0" d="M62.5,38.5l2.2-2.2c0.4-0.4,0.4-1,0-1.4c-0.4-0.4-1-0.4-1.4,0l-2.2,2.2L54.2,44l-5.2,5.2l1.4,1.4l5.2-5.2
		L62.5,38.5z"/>
</g>
<g>
	<path class="st0" d="M38.3,34.8c-0.4-0.4-1-0.4-1.4,0c-0.4,0.4-0.4,1,0,1.4l12.5,12.5l1.4-1.4L38.3,34.8z"/>
	<polygon class="st0" points="50.9,47.3 49.5,48.7 50.9,50.2 52.3,48.7 	"/>
	<path class="st0" d="M60.7,60l2.2,2.2c0.4,0.4,1,0.4,1.4,0c0.4-0.4,0.4-1,0-1.4l-2.2-2.2l-6.9-6.9L50,46.4l-1.4,1.4l5.2,5.2
		L60.7,60z"/>
</g>
</svg>
